<?xml version="1.0" encoding="utf-8"?>
<svg width="120px" height="180px" viewBox="0 0 120 180" version="1.1" xmlns:xlink="http://www.w3.org/1999/xlink" xmlns="http://www.w3.org/2000/svg">
  <desc>Created with Lunacy</desc>
  <g id="Зробити">
    <g id="Види-допомоги" transform="translate(90 0)">
      <g id="Зробити">
        <path d="M4.999 0L25.001 0Q25.1237 0 25.2463 0.00602151Q25.3689 0.012043 25.491 0.0240715Q25.6131 0.0361001 25.7345 0.0541066Q25.8559 0.0721132 25.9763 0.0960544Q26.0966 0.119996 26.2157 0.149814Q26.3347 0.179632 26.4521 0.215255Q26.5696 0.250879 26.6851 0.292221Q26.8007 0.333564 26.914 0.380526Q27.0274 0.427489 27.1383 0.479957Q27.2493 0.532426 27.3575 0.590276Q27.4657 0.648125 27.571 0.711215Q27.6763 0.774305 27.7783 0.842483Q27.8803 0.910662 27.9789 0.983765Q28.0775 1.05687 28.1723 1.13472Q28.2672 1.21257 28.3581 1.29499Q28.449 1.3774 28.5358 1.46417Q28.6226 1.55095 28.705 1.64188Q28.7874 1.73281 28.8653 1.82767Q28.9431 1.92253 29.0162 2.0211Q29.0893 2.11967 29.1575 2.2217Q29.2257 2.32374 29.2888 2.429Q29.3519 2.53426 29.4097 2.64249Q29.4676 2.75072 29.52 2.86165Q29.5725 2.97259 29.6195 3.08597Q29.6664 3.19934 29.7078 3.31489Q29.7491 3.43043 29.7847 3.54787Q29.8204 3.6653 29.8502 3.78434Q29.88 3.90338 29.9039 4.02374Q29.9279 4.1441 29.9459 4.26549Q29.9639 4.38688 29.9759 4.50901Q29.988 4.63114 29.994 4.75371Q30 4.87628 30 4.999L30 25.001Q30 25.1237 29.994 25.2463Q29.988 25.3689 29.9759 25.491Q29.9639 25.6131 29.9459 25.7345Q29.9279 25.8559 29.9039 25.9763Q29.88 26.0966 29.8502 26.2157Q29.8204 26.3347 29.7847 26.4521Q29.7491 26.5696 29.7078 26.6851Q29.6664 26.8007 29.6195 26.914Q29.5725 27.0274 29.52 27.1383Q29.4676 27.2493 29.4097 27.3575Q29.3519 27.4657 29.2888 27.571Q29.2257 27.6763 29.1575 27.7783Q29.0893 27.8803 29.0162 27.9789Q28.9431 28.0775 28.8653 28.1723Q28.7874 28.2672 28.705 28.3581Q28.6226 28.449 28.5358 28.5358Q28.449 28.6226 28.3581 28.705Q28.2672 28.7874 28.1723 28.8653Q28.0775 28.9431 27.9789 29.0162Q27.8803 29.0893 27.7783 29.1575Q27.6763 29.2257 27.571 29.2888Q27.4657 29.3519 27.3575 29.4097Q27.2493 29.4676 27.1383 29.52Q27.0274 29.5725 26.914 29.6195Q26.8007 29.6664 26.6851 29.7078Q26.5696 29.7491 26.4521 29.7847Q26.3347 29.8204 26.2157 29.8502Q26.0966 29.88 25.9763 29.9039Q25.8559 29.9279 25.7345 29.9459Q25.6131 29.9639 25.491 29.9759Q25.3689 29.988 25.2463 29.994Q25.1237 30 25.001 30L4.999 30Q4.87628 30 4.75371 29.994Q4.63114 29.988 4.50901 29.9759Q4.38688 29.9639 4.26549 29.9459Q4.1441 29.9279 4.02374 29.9039Q3.90338 29.88 3.78434 29.8502Q3.6653 29.8204 3.54787 29.7847Q3.43043 29.7491 3.31489 29.7078Q3.19934 29.6664 3.08597 29.6195Q2.97259 29.5725 2.86165 29.52Q2.75072 29.4676 2.64249 29.4097Q2.53426 29.3519 2.429 29.2888Q2.32374 29.2257 2.2217 29.1575Q2.11967 29.0893 2.0211 29.0162Q1.92253 28.9431 1.82767 28.8653Q1.73281 28.7874 1.64188 28.705Q1.55095 28.6226 1.46417 28.5358Q1.3774 28.449 1.29499 28.3581Q1.21257 28.2672 1.13472 28.1723Q1.05687 28.0775 0.983765 27.9789Q0.910662 27.8803 0.842483 27.7783Q0.774305 27.6763 0.711215 27.571Q0.648125 27.4657 0.590276 27.3575Q0.532426 27.2493 0.479957 27.1383Q0.427489 27.0274 0.380526 26.914Q0.333564 26.8007 0.292221 26.6851Q0.250879 26.5696 0.215255 26.4521Q0.179632 26.3347 0.149814 26.2157Q0.119996 26.0966 0.0960544 25.9763Q0.0721132 25.8559 0.0541066 25.7345Q0.0361001 25.6131 0.0240715 25.491Q0.012043 25.3689 0.00602151 25.2463Q0 25.1237 0 25.001L0 4.999Q0 4.87628 0.00602151 4.75371Q0.012043 4.63114 0.0240715 4.50901Q0.0361001 4.38688 0.0541066 4.26549Q0.0721132 4.1441 0.0960544 4.02374Q0.119996 3.90338 0.149814 3.78434Q0.179632 3.6653 0.215255 3.54787Q0.250879 3.43043 0.292221 3.31489Q0.333564 3.19934 0.380526 3.08597Q0.427489 2.97259 0.479957 2.86165Q0.532426 2.75072 0.590276 2.64249Q0.648125 2.53426 0.711215 2.429Q0.774305 2.32374 0.842483 2.2217Q0.910662 2.11967 0.983765 2.0211Q1.05687 1.92253 1.13472 1.82767Q1.21257 1.73281 1.29499 1.64188Q1.3774 1.55095 1.46417 1.46417Q1.55095 1.3774 1.64188 1.29499Q1.73281 1.21257 1.82767 1.13472Q1.92253 1.05687 2.0211 0.983765Q2.11967 0.910662 2.2217 0.842483Q2.32374 0.774305 2.429 0.711215Q2.53426 0.648125 2.64249 0.590276Q2.75072 0.532426 2.86165 0.479957Q2.97259 0.427489 3.08597 0.380526Q3.19934 0.333564 3.31489 0.292221Q3.43043 0.250879 3.54787 0.215255Q3.6653 0.179632 3.78434 0.149814Q3.90338 0.119996 4.02374 0.0960544Q4.1441 0.0721132 4.26549 0.0541066Q4.38688 0.0361001 4.50901 0.0240715Q4.63114 0.012043 4.75371 0.00602151Q4.87628 0 4.999 0Z" id="Rectangle-12-Copy-2" fill="#9C5D9A" stroke="none" />
        <path d="M14.5511 5.73882L13.2933 14.2772C13.1683 14.9252 12.8814 15.2089 12.6728 15.4165C12.4705 15.6176 12.3361 15.7511 12.3361 16.4044L12.3361 17.4706C12.3361 17.7628 12.0989 18 11.8067 18C11.5144 18 11.2773 17.7628 11.2773 17.4706L11.2773 16.4044C11.2773 15.3932 11.5716 15.0184 11.9274 14.6658C12.0915 14.5027 12.19 14.4042 12.2493 14.1004L13.504 5.58847C13.523 5.45824 13.558 5.01671 13.2149 4.96906C13.0963 4.95212 13 4.97118 12.9237 5.02941C12.8221 5.10459 12.7501 5.25071 12.7247 5.42965L12.1984 8.94071C12.172 9.12177 12.0523 9.27529 11.885 9.34835C11.7177 9.42141 11.524 9.40129 11.3726 9.29647C11.3196 9.30494 11.2307 9.27212 11.1417 9.21388C10.9808 9.11118 10.8887 8.93012 10.8993 8.73953L11.201 3.14259C11.2254 2.84824 11.021 2.60365 10.7436 2.57929C10.6091 2.56659 10.48 2.60894 10.3773 2.69471C10.2735 2.78153 10.2121 2.90224 10.2004 3.03459L9.7102 8.09788C9.68267 8.38271 9.45714 8.58918 9.14796 8.57541C9.0622 8.57012 8.97537 8.56482 8.88749 8.56376C8.60267 8.55741 8.37396 8.32765 8.36867 8.04388L8.2469 1.56494C8.2469 1.28118 8.02455 1.05882 7.75137 1.05882C7.4782 1.05882 7.25584 1.28118 7.25584 1.55435L7.1309 8.52777C7.12667 8.72894 7.0102 8.91106 6.82808 8.99682C6.76243 9.02859 6.6989 9.06035 6.63855 9.09424C6.4829 9.18318 6.29337 9.18635 6.13455 9.10271C5.97573 9.02012 5.86878 8.86235 5.85078 8.68447L5.30549 3.042C5.29384 2.90329 5.23137 2.78259 5.12973 2.69682C5.02702 2.61106 4.88831 2.57188 4.76443 2.58141C4.63102 2.59306 4.51137 2.65553 4.42561 2.75824C4.3409 2.85988 4.29961 2.98906 4.31125 3.12141L4.84384 10.6359C4.86078 10.8667 4.7242 11.0827 4.5082 11.1664C4.29008 11.2511 4.04443 11.1844 3.90149 11.0022L2.25925 8.93435C2.04431 8.57435 1.6642 8.47376 1.36984 8.64424C1.22584 8.72788 1.12314 8.86129 1.08078 9.02118C1.03843 9.18 1.05961 9.34729 1.14431 9.49023L4.8809 15.9353C4.96561 16.0825 5.10431 16.1852 5.26949 16.2254C5.50667 16.2826 5.67396 16.4954 5.67396 16.74L5.67396 17.4706C5.67396 17.7628 5.43678 18 5.14455 18C4.85231 18 4.61514 17.7628 4.61514 17.4706L4.61514 17.1C4.3462 16.9549 4.12278 16.7389 3.96502 16.4668L0.227373 10.0218C0.0018432 9.63424 -0.0585097 9.18212 0.0579608 8.74906C0.172314 8.31494 0.450784 7.95282 0.840431 7.72729C1.64302 7.26459 2.67008 7.53988 3.13173 8.34035L3.66749 9.01165L3.25561 3.20612C3.21961 2.80165 3.34667 2.39718 3.61349 2.07741C3.88031 1.75976 4.25726 1.56388 4.67126 1.52682C5.09161 1.48871 5.49184 1.61894 5.81161 1.88682C5.9662 2.01706 6.09008 2.17165 6.1822 2.34318L6.19702 1.54588C6.19702 0.696706 6.89478 0 7.75137 0C8.60796 0 9.30573 0.697765 9.30573 1.55541L9.32055 2.34529C9.41373 2.17271 9.53867 2.01706 9.69431 1.88576C10.0151 1.61682 10.4228 1.48765 10.8357 1.52576C11.6944 1.60094 12.3308 2.36012 12.2556 3.21776L12.1995 4.25329C12.227 4.22894 12.2567 4.20565 12.2853 4.18341C12.5902 3.95471 12.9597 3.86576 13.3631 3.92082C14.1943 4.03624 14.6845 4.78482 14.5511 5.73882L14.5511 5.73882Z" transform="translate(7 5)" id="Shape" fill="#FFFFFF" stroke="none" />
      </g>
      <g id="Финансово" transform="translate(0 50)">
        <path d="M4.999 0L25.001 0Q25.1237 0 25.2463 0.00602151Q25.3689 0.012043 25.491 0.0240715Q25.6131 0.0361001 25.7345 0.0541066Q25.8559 0.0721132 25.9763 0.0960544Q26.0966 0.119996 26.2157 0.149814Q26.3347 0.179632 26.4521 0.215255Q26.5696 0.250879 26.6851 0.292221Q26.8007 0.333564 26.914 0.380526Q27.0274 0.427489 27.1383 0.479957Q27.2493 0.532426 27.3575 0.590276Q27.4657 0.648125 27.571 0.711215Q27.6763 0.774305 27.7783 0.842483Q27.8803 0.910662 27.9789 0.983765Q28.0775 1.05687 28.1723 1.13472Q28.2672 1.21257 28.3581 1.29499Q28.449 1.3774 28.5358 1.46417Q28.6226 1.55095 28.705 1.64188Q28.7874 1.73281 28.8653 1.82767Q28.9431 1.92253 29.0162 2.0211Q29.0893 2.11967 29.1575 2.2217Q29.2257 2.32374 29.2888 2.429Q29.3519 2.53426 29.4097 2.64249Q29.4676 2.75072 29.52 2.86165Q29.5725 2.97259 29.6195 3.08597Q29.6664 3.19934 29.7078 3.31489Q29.7491 3.43043 29.7847 3.54787Q29.8204 3.6653 29.8502 3.78434Q29.88 3.90338 29.9039 4.02374Q29.9279 4.1441 29.9459 4.26549Q29.9639 4.38688 29.9759 4.50901Q29.988 4.63114 29.994 4.75371Q30 4.87628 30 4.999L30 25.001Q30 25.1237 29.994 25.2463Q29.988 25.3689 29.9759 25.491Q29.9639 25.6131 29.9459 25.7345Q29.9279 25.8559 29.9039 25.9763Q29.88 26.0966 29.8502 26.2157Q29.8204 26.3347 29.7847 26.4521Q29.7491 26.5696 29.7078 26.6851Q29.6664 26.8007 29.6195 26.914Q29.5725 27.0274 29.52 27.1383Q29.4676 27.2493 29.4097 27.3575Q29.3519 27.4657 29.2888 27.571Q29.2257 27.6763 29.1575 27.7783Q29.0893 27.8803 29.0162 27.9789Q28.9431 28.0775 28.8653 28.1723Q28.7874 28.2672 28.705 28.3581Q28.6226 28.449 28.5358 28.5358Q28.449 28.6226 28.3581 28.705Q28.2672 28.7874 28.1723 28.8653Q28.0775 28.9431 27.9789 29.0162Q27.8803 29.0893 27.7783 29.1575Q27.6763 29.2257 27.571 29.2888Q27.4657 29.3519 27.3575 29.4097Q27.2493 29.4676 27.1383 29.52Q27.0274 29.5725 26.914 29.6195Q26.8007 29.6664 26.6851 29.7078Q26.5696 29.7491 26.4521 29.7847Q26.3347 29.8204 26.2157 29.8502Q26.0966 29.88 25.9763 29.9039Q25.8559 29.9279 25.7345 29.9459Q25.6131 29.9639 25.491 29.9759Q25.3689 29.988 25.2463 29.994Q25.1237 30 25.001 30L4.999 30Q4.87628 30 4.75371 29.994Q4.63114 29.988 4.50901 29.9759Q4.38688 29.9639 4.26549 29.9459Q4.1441 29.9279 4.02374 29.9039Q3.90338 29.88 3.78434 29.8502Q3.6653 29.8204 3.54787 29.7847Q3.43043 29.7491 3.31489 29.7078Q3.19934 29.6664 3.08597 29.6195Q2.97259 29.5725 2.86165 29.52Q2.75072 29.4676 2.64249 29.4097Q2.53426 29.3519 2.429 29.2888Q2.32374 29.2257 2.2217 29.1575Q2.11967 29.0893 2.0211 29.0162Q1.92253 28.9431 1.82767 28.8653Q1.73281 28.7874 1.64188 28.705Q1.55095 28.6226 1.46417 28.5358Q1.3774 28.449 1.29499 28.3581Q1.21257 28.2672 1.13472 28.1723Q1.05687 28.0775 0.983765 27.9789Q0.910662 27.8803 0.842483 27.7783Q0.774305 27.6763 0.711215 27.571Q0.648125 27.4657 0.590276 27.3575Q0.532426 27.2493 0.479957 27.1383Q0.427489 27.0274 0.380526 26.914Q0.333564 26.8007 0.292221 26.6851Q0.250879 26.5696 0.215255 26.4521Q0.179632 26.3347 0.149814 26.2157Q0.119996 26.0966 0.0960544 25.9763Q0.0721132 25.8559 0.0541066 25.7345Q0.0361001 25.6131 0.0240715 25.491Q0.012043 25.3689 0.00602151 25.2463Q0 25.1237 0 25.001L0 4.999Q0 4.87628 0.00602151 4.75371Q0.012043 4.63114 0.0240715 4.50901Q0.0361001 4.38688 0.0541066 4.26549Q0.0721132 4.1441 0.0960544 4.02374Q0.119996 3.90338 0.149814 3.78434Q0.179632 3.6653 0.215255 3.54787Q0.250879 3.43043 0.292221 3.31489Q0.333564 3.19934 0.380526 3.08597Q0.427489 2.97259 0.479957 2.86165Q0.532426 2.75072 0.590276 2.64249Q0.648125 2.53426 0.711215 2.429Q0.774305 2.32374 0.842483 2.2217Q0.910662 2.11967 0.983765 2.0211Q1.05687 1.92253 1.13472 1.82767Q1.21257 1.73281 1.29499 1.64188Q1.3774 1.55095 1.46417 1.46417Q1.55095 1.3774 1.64188 1.29499Q1.73281 1.21257 1.82767 1.13472Q1.92253 1.05687 2.0211 0.983765Q2.11967 0.910662 2.2217 0.842483Q2.32374 0.774305 2.429 0.711215Q2.53426 0.648125 2.64249 0.590276Q2.75072 0.532426 2.86165 0.479957Q2.97259 0.427489 3.08597 0.380526Q3.19934 0.333564 3.31489 0.292221Q3.43043 0.250879 3.54787 0.215255Q3.6653 0.179632 3.78434 0.149814Q3.90338 0.119996 4.02374 0.0960544Q4.1441 0.0721132 4.26549 0.0541066Q4.38688 0.0361001 4.50901 0.0240715Q4.63114 0.012043 4.75371 0.00602151Q4.87628 0 4.999 0Z" id="Rectangle-12-Copy-3" fill="#9C5D9A" stroke="none" />
        <path d="M0.0148235 1.62847C0.0148235 0.730588 0.751765 0 1.656 0L18 0L18 13.0871L15.9268 13.0871L15.9268 14.8394L1.64118 14.8394C0.735882 14.8394 0 14.1088 0 13.2109L0 1.62847L0.0148235 1.62847ZM15.9268 2.09541L15.9268 6.36776L16.9412 6.36776L16.9412 1.05882L1.656 1.05882C1.33624 1.05882 1.07471 1.314 1.07365 1.62847C1.07365 1.95035 1.36694 2.09541 1.656 2.09541L15.9268 2.09541ZM1.64118 13.7795C1.32035 13.7795 1.05882 13.5244 1.05882 13.2099L1.05882 3.06318C1.08424 3.07059 1.116 3.06847 1.14141 3.07588C1.29282 3.12035 1.45165 3.14788 1.62106 3.15106C1.62847 3.15106 1.63376 3.15424 1.64118 3.15424L14.8691 3.15424L14.8691 6.36776L11.8419 6.36776C10.9292 6.36776 10.1869 7.08035 10.1869 7.956L10.1869 9.01482C10.1869 9.89047 10.9292 10.6031 11.8419 10.6031L14.8691 10.6031L14.8691 13.7795L1.64118 13.7795ZM11.2447 9.01482C11.2447 9.30706 11.5115 9.54424 11.8408 9.54424L16.9412 9.54424L16.9412 7.42659L11.8408 7.42659C11.5126 7.42659 11.2447 7.66376 11.2447 7.956L11.2447 9.01482ZM16.9412 12.0272L15.9268 12.0272L15.9268 10.6031L16.9412 10.6031L16.9412 12.0272Z" transform="translate(6 8)" id="Shape" fill="#FFFFFF" fill-rule="evenodd" stroke="none" />
      </g>
      <g id="Материально" transform="translate(0 100)">
        <path d="M4.999 0L25.001 0Q25.1237 0 25.2463 0.00602151Q25.3689 0.012043 25.491 0.0240715Q25.6131 0.0361001 25.7345 0.0541066Q25.8559 0.0721132 25.9763 0.0960544Q26.0966 0.119996 26.2157 0.149814Q26.3347 0.179632 26.4521 0.215255Q26.5696 0.250879 26.6851 0.292221Q26.8007 0.333564 26.914 0.380526Q27.0274 0.427489 27.1383 0.479957Q27.2493 0.532426 27.3575 0.590276Q27.4657 0.648125 27.571 0.711215Q27.6763 0.774305 27.7783 0.842483Q27.8803 0.910662 27.9789 0.983765Q28.0775 1.05687 28.1723 1.13472Q28.2672 1.21257 28.3581 1.29499Q28.449 1.3774 28.5358 1.46417Q28.6226 1.55095 28.705 1.64188Q28.7874 1.73281 28.8653 1.82767Q28.9431 1.92253 29.0162 2.0211Q29.0893 2.11967 29.1575 2.2217Q29.2257 2.32374 29.2888 2.429Q29.3519 2.53426 29.4097 2.64249Q29.4676 2.75072 29.52 2.86165Q29.5725 2.97259 29.6195 3.08597Q29.6664 3.19934 29.7078 3.31489Q29.7491 3.43043 29.7847 3.54787Q29.8204 3.6653 29.8502 3.78434Q29.88 3.90338 29.9039 4.02374Q29.9279 4.1441 29.9459 4.26549Q29.9639 4.38688 29.9759 4.50901Q29.988 4.63114 29.994 4.75371Q30 4.87628 30 4.999L30 25.001Q30 25.1237 29.994 25.2463Q29.988 25.3689 29.9759 25.491Q29.9639 25.6131 29.9459 25.7345Q29.9279 25.8559 29.9039 25.9763Q29.88 26.0966 29.8502 26.2157Q29.8204 26.3347 29.7847 26.4521Q29.7491 26.5696 29.7078 26.6851Q29.6664 26.8007 29.6195 26.914Q29.5725 27.0274 29.52 27.1383Q29.4676 27.2493 29.4097 27.3575Q29.3519 27.4657 29.2888 27.571Q29.2257 27.6763 29.1575 27.7783Q29.0893 27.8803 29.0162 27.9789Q28.9431 28.0775 28.8653 28.1723Q28.7874 28.2672 28.705 28.3581Q28.6226 28.449 28.5358 28.5358Q28.449 28.6226 28.3581 28.705Q28.2672 28.7874 28.1723 28.8653Q28.0775 28.9431 27.9789 29.0162Q27.8803 29.0893 27.7783 29.1575Q27.6763 29.2257 27.571 29.2888Q27.4657 29.3519 27.3575 29.4097Q27.2493 29.4676 27.1383 29.52Q27.0274 29.5725 26.914 29.6195Q26.8007 29.6664 26.6851 29.7078Q26.5696 29.7491 26.4521 29.7847Q26.3347 29.8204 26.2157 29.8502Q26.0966 29.88 25.9763 29.9039Q25.8559 29.9279 25.7345 29.9459Q25.6131 29.9639 25.491 29.9759Q25.3689 29.988 25.2463 29.994Q25.1237 30 25.001 30L4.999 30Q4.87628 30 4.75371 29.994Q4.63114 29.988 4.50901 29.9759Q4.38688 29.9639 4.26549 29.9459Q4.1441 29.9279 4.02374 29.9039Q3.90338 29.88 3.78434 29.8502Q3.6653 29.8204 3.54787 29.7847Q3.43043 29.7491 3.31489 29.7078Q3.19934 29.6664 3.08597 29.6195Q2.97259 29.5725 2.86165 29.52Q2.75072 29.4676 2.64249 29.4097Q2.53426 29.3519 2.429 29.2888Q2.32374 29.2257 2.2217 29.1575Q2.11967 29.0893 2.0211 29.0162Q1.92253 28.9431 1.82767 28.8653Q1.73281 28.7874 1.64188 28.705Q1.55095 28.6226 1.46417 28.5358Q1.3774 28.449 1.29499 28.3581Q1.21257 28.2672 1.13472 28.1723Q1.05687 28.0775 0.983765 27.9789Q0.910662 27.8803 0.842483 27.7783Q0.774305 27.6763 0.711215 27.571Q0.648125 27.4657 0.590276 27.3575Q0.532426 27.2493 0.479957 27.1383Q0.427489 27.0274 0.380526 26.914Q0.333564 26.8007 0.292221 26.6851Q0.250879 26.5696 0.215255 26.4521Q0.179632 26.3347 0.149814 26.2157Q0.119996 26.0966 0.0960544 25.9763Q0.0721132 25.8559 0.0541066 25.7345Q0.0361001 25.6131 0.0240715 25.491Q0.012043 25.3689 0.00602151 25.2463Q0 25.1237 0 25.001L0 4.999Q0 4.87628 0.00602151 4.75371Q0.012043 4.63114 0.0240715 4.50901Q0.0361001 4.38688 0.0541066 4.26549Q0.0721132 4.1441 0.0960544 4.02374Q0.119996 3.90338 0.149814 3.78434Q0.179632 3.6653 0.215255 3.54787Q0.250879 3.43043 0.292221 3.31489Q0.333564 3.19934 0.380526 3.08597Q0.427489 2.97259 0.479957 2.86165Q0.532426 2.75072 0.590276 2.64249Q0.648125 2.53426 0.711215 2.429Q0.774305 2.32374 0.842483 2.2217Q0.910662 2.11967 0.983765 2.0211Q1.05687 1.92253 1.13472 1.82767Q1.21257 1.73281 1.29499 1.64188Q1.3774 1.55095 1.46417 1.46417Q1.55095 1.3774 1.64188 1.29499Q1.73281 1.21257 1.82767 1.13472Q1.92253 1.05687 2.0211 0.983765Q2.11967 0.910662 2.2217 0.842483Q2.32374 0.774305 2.429 0.711215Q2.53426 0.648125 2.64249 0.590276Q2.75072 0.532426 2.86165 0.479957Q2.97259 0.427489 3.08597 0.380526Q3.19934 0.333564 3.31489 0.292221Q3.43043 0.250879 3.54787 0.215255Q3.6653 0.179632 3.78434 0.149814Q3.90338 0.119996 4.02374 0.0960544Q4.1441 0.0721132 4.26549 0.0541066Q4.38688 0.0361001 4.50901 0.0240715Q4.63114 0.012043 4.75371 0.00602151Q4.87628 0 4.999 0Z" id="Rectangle-12-Copy-4" fill="#9C5D9A" stroke="none" />
        <g id="clothes" transform="translate(6 4)">
          <g id="Group">
            <path d="M6.41373 11.4613L4.03848 11.4613L4.03848 0.776699L5.50602 0.776699C5.6931 1.96324 6.72259 2.87358 7.96086 2.87358C9.19912 2.87358 10.2286 1.96324 10.4157 0.776699L11.8831 0.776699L11.8831 6.72368C11.8831 6.93815 12.057 7.11203 12.2715 7.11203C12.486 7.11203 12.6598 6.93815 12.6598 6.72368L12.6598 5.67684L13.4956 6.09471C13.5511 6.12246 13.6104 6.13572 13.6691 6.13572C13.7919 6.13572 13.9117 6.07741 13.9866 5.97126L15.8506 3.33064C15.9673 3.16526 15.9375 2.93794 15.782 2.80834L12.5215 0.0913916C12.454 0.0344337 12.3668 0 12.2715 0L3.65013 0C3.5547 0 3.46745 0.0345372 3.39982 0.0916505L0.139759 2.80834C-0.0157365 2.93794 -0.0456653 3.16526 0.0710984 3.33064L1.93512 5.97126C2.01005 6.07736 2.12982 6.13572 2.25264 6.13572C2.31125 6.13572 2.37059 6.12241 2.4261 6.09471L3.26183 5.67684L3.26183 11.8496C3.26183 12.0641 3.43571 12.238 3.65018 12.238L6.41378 12.238C6.62825 12.238 6.80213 12.0641 6.80213 11.8496C6.80213 11.6352 6.6282 11.4613 6.41373 11.4613ZM7.96086 2.09688C7.15232 2.09688 6.47364 1.53222 6.29722 0.776699L9.6245 0.776699C9.44808 1.53227 8.7694 2.09688 7.96086 2.09688ZM0.912315 3.17556L2.37717 5.25074L3.26178 4.80844L3.26178 1.21771L0.912315 3.17556ZM12.6598 4.80844L13.5444 5.25074L15.0093 3.17556L12.6598 1.21771L12.6598 4.80844Z" transform="translate(0.04789189 0)" id="Shape" fill="#FFFFFF" fill-rule="evenodd" stroke="none" />
            <path d="M0.38835 0L8.19656 0C8.41103 0 8.58491 0.173825 8.5848 0.38835L8.5848 14.0724C8.5848 14.2869 8.41092 14.4608 8.19645 14.4608L5.20611 14.4608C5.00003 14.4608 4.82983 14.2998 4.81838 14.094L4.2924 4.63135L3.76642 14.094C3.75503 14.2998 3.58478 14.4608 3.37869 14.4608L0.38835 14.4608C0.173877 14.4608 0 14.2869 0 14.0724L0 0.38835C0 0.173877 0.173877 0 0.38835 0ZM2.00129 0.776699L2.00129 1.64583L0.776699 1.64583L0.776699 0.776699L2.00129 0.776699ZM2.77799 0.776699L2.77799 1.64583L5.80691 1.64583L5.80691 0.776699L2.77799 0.776699ZM7.80821 1.64583L6.58361 1.64583L6.58361 0.776699L7.80821 0.776699L7.80821 1.64583ZM5.0457 4.18781L5.57359 13.684L7.80826 13.684L7.80826 2.42252L0.776751 2.42252L0.776751 13.684L3.01142 13.684L3.53926 4.18781C3.55065 3.98198 3.72091 3.821 3.92699 3.821L4.65797 3.821C4.86405 3.821 5.03425 3.98203 5.0457 4.18781Z" transform="translate(7.321476 7.563133)" id="Shape" fill="#FFFFFF" fill-rule="evenodd" stroke="none" />
          </g>
        </g>
      </g>
      <g id="Волонтерство" transform="translate(0 150)">
        <path d="M4.999 0L25.001 0Q25.1237 0 25.2463 0.00602151Q25.3689 0.012043 25.491 0.0240715Q25.6131 0.0361001 25.7345 0.0541066Q25.8559 0.0721132 25.9763 0.0960544Q26.0966 0.119996 26.2157 0.149814Q26.3347 0.179632 26.4521 0.215255Q26.5696 0.250879 26.6851 0.292221Q26.8007 0.333564 26.914 0.380526Q27.0274 0.427489 27.1383 0.479957Q27.2493 0.532426 27.3575 0.590276Q27.4657 0.648125 27.571 0.711215Q27.6763 0.774305 27.7783 0.842483Q27.8803 0.910662 27.9789 0.983765Q28.0775 1.05687 28.1723 1.13472Q28.2672 1.21257 28.3581 1.29499Q28.449 1.3774 28.5358 1.46417Q28.6226 1.55095 28.705 1.64188Q28.7874 1.73281 28.8653 1.82767Q28.9431 1.92253 29.0162 2.0211Q29.0893 2.11967 29.1575 2.2217Q29.2257 2.32374 29.2888 2.429Q29.3519 2.53426 29.4097 2.64249Q29.4676 2.75072 29.52 2.86165Q29.5725 2.97259 29.6195 3.08597Q29.6664 3.19934 29.7078 3.31489Q29.7491 3.43043 29.7847 3.54787Q29.8204 3.6653 29.8502 3.78434Q29.88 3.90338 29.9039 4.02374Q29.9279 4.1441 29.9459 4.26549Q29.9639 4.38688 29.9759 4.50901Q29.988 4.63114 29.994 4.75371Q30 4.87628 30 4.999L30 25.001Q30 25.1237 29.994 25.2463Q29.988 25.3689 29.9759 25.491Q29.9639 25.6131 29.9459 25.7345Q29.9279 25.8559 29.9039 25.9763Q29.88 26.0966 29.8502 26.2157Q29.8204 26.3347 29.7847 26.4521Q29.7491 26.5696 29.7078 26.6851Q29.6664 26.8007 29.6195 26.914Q29.5725 27.0274 29.52 27.1383Q29.4676 27.2493 29.4097 27.3575Q29.3519 27.4657 29.2888 27.571Q29.2257 27.6763 29.1575 27.7783Q29.0893 27.8803 29.0162 27.9789Q28.9431 28.0775 28.8653 28.1723Q28.7874 28.2672 28.705 28.3581Q28.6226 28.449 28.5358 28.5358Q28.449 28.6226 28.3581 28.705Q28.2672 28.7874 28.1723 28.8653Q28.0775 28.9431 27.9789 29.0162Q27.8803 29.0893 27.7783 29.1575Q27.6763 29.2257 27.571 29.2888Q27.4657 29.3519 27.3575 29.4097Q27.2493 29.4676 27.1383 29.52Q27.0274 29.5725 26.914 29.6195Q26.8007 29.6664 26.6851 29.7078Q26.5696 29.7491 26.4521 29.7847Q26.3347 29.8204 26.2157 29.8502Q26.0966 29.88 25.9763 29.9039Q25.8559 29.9279 25.7345 29.9459Q25.6131 29.9639 25.491 29.9759Q25.3689 29.988 25.2463 29.994Q25.1237 30 25.001 30L4.999 30Q4.87628 30 4.75371 29.994Q4.63114 29.988 4.50901 29.9759Q4.38688 29.9639 4.26549 29.9459Q4.1441 29.9279 4.02374 29.9039Q3.90338 29.88 3.78434 29.8502Q3.6653 29.8204 3.54787 29.7847Q3.43043 29.7491 3.31489 29.7078Q3.19934 29.6664 3.08597 29.6195Q2.97259 29.5725 2.86165 29.52Q2.75072 29.4676 2.64249 29.4097Q2.53426 29.3519 2.429 29.2888Q2.32374 29.2257 2.2217 29.1575Q2.11967 29.0893 2.0211 29.0162Q1.92253 28.9431 1.82767 28.8653Q1.73281 28.7874 1.64188 28.705Q1.55095 28.6226 1.46417 28.5358Q1.3774 28.449 1.29499 28.3581Q1.21257 28.2672 1.13472 28.1723Q1.05687 28.0775 0.983765 27.9789Q0.910662 27.8803 0.842483 27.7783Q0.774305 27.6763 0.711215 27.571Q0.648125 27.4657 0.590276 27.3575Q0.532426 27.2493 0.479957 27.1383Q0.427489 27.0274 0.380526 26.914Q0.333564 26.8007 0.292221 26.6851Q0.250879 26.5696 0.215255 26.4521Q0.179632 26.3347 0.149814 26.2157Q0.119996 26.0966 0.0960544 25.9763Q0.0721132 25.8559 0.0541066 25.7345Q0.0361001 25.6131 0.0240715 25.491Q0.012043 25.3689 0.00602151 25.2463Q0 25.1237 0 25.001L0 4.999Q0 4.87628 0.00602151 4.75371Q0.012043 4.63114 0.0240715 4.50901Q0.0361001 4.38688 0.0541066 4.26549Q0.0721132 4.1441 0.0960544 4.02374Q0.119996 3.90338 0.149814 3.78434Q0.179632 3.6653 0.215255 3.54787Q0.250879 3.43043 0.292221 3.31489Q0.333564 3.19934 0.380526 3.08597Q0.427489 2.97259 0.479957 2.86165Q0.532426 2.75072 0.590276 2.64249Q0.648125 2.53426 0.711215 2.429Q0.774305 2.32374 0.842483 2.2217Q0.910662 2.11967 0.983765 2.0211Q1.05687 1.92253 1.13472 1.82767Q1.21257 1.73281 1.29499 1.64188Q1.3774 1.55095 1.46417 1.46417Q1.55095 1.3774 1.64188 1.29499Q1.73281 1.21257 1.82767 1.13472Q1.92253 1.05687 2.0211 0.983765Q2.11967 0.910662 2.2217 0.842483Q2.32374 0.774305 2.429 0.711215Q2.53426 0.648125 2.64249 0.590276Q2.75072 0.532426 2.86165 0.479957Q2.97259 0.427489 3.08597 0.380526Q3.19934 0.333564 3.31489 0.292221Q3.43043 0.250879 3.54787 0.215255Q3.6653 0.179632 3.78434 0.149814Q3.90338 0.119996 4.02374 0.0960544Q4.1441 0.0721132 4.26549 0.0541066Q4.38688 0.0361001 4.50901 0.0240715Q4.63114 0.012043 4.75371 0.00602151Q4.87628 0 4.999 0Z" id="Rectangle-12-Copy-5" fill="#9C5D9A" stroke="none" />
        <g id="donation" transform="translate(6 7)">
          <g id="Group">
            <path d="M0.331488 0.967204C1.03213 1.21569 1.59786 1.78293 1.84634 2.48358C1.91853 2.68824 2.11076 2.81575 2.31542 2.81575C2.37069 2.81575 2.42695 2.8063 2.48174 2.78686C2.74068 2.69524 2.87665 2.4104 2.78503 2.1514C2.43296 1.15541 1.6596 0.381582 0.664595 0.0284578C0.405135 -0.0626973 0.120815 0.0722847 0.0286682 0.331219C-0.0628954 0.590737 0.0720282 0.875115 0.331488 0.967204Z" transform="translate(12.96737 2.163467)" id="Shape" fill="#FFFFFF" stroke="none" />
            <path d="M8.72527 16.8709C8.79997 16.9112 8.88161 16.9316 8.96378 16.9316C9.04595 16.9316 9.12812 16.9112 9.20229 16.8709C14.8699 13.7794 17.9276 8.69341 17.9276 5.47789C17.9276 2.4571 15.4705 4.14658e-16 12.4497 4.14658e-16C10.3282 4.14658e-16 8.3781 1.2425 7.48225 3.16621C7.36571 3.41569 7.47379 3.71203 7.7228 3.82805C7.97228 3.94459 8.26862 3.83604 8.38464 3.58703C9.1182 2.01288 10.7137 0.995995 12.4497 0.995995C14.9213 0.995995 16.9316 3.00637 16.9316 5.47789C16.9316 8.40156 13.9571 13.0473 8.96384 15.8639C3.9705 13.0473 0.995995 8.40162 0.995995 5.47789C0.995995 3.00637 3.00689 0.995995 5.47789 0.995995C6.10185 0.995995 6.70545 1.12146 7.27263 1.36949C7.52462 1.47955 7.81792 1.36499 7.92845 1.113C8.03852 0.861013 7.92349 0.567706 7.6715 0.457176C6.97833 0.15389 6.24027 0 5.47789 0C2.45757 0 0 2.45705 0 5.47789C0 8.69341 3.05819 13.7794 8.72527 16.8709Z" transform="translate(0.01600467 0.0002917898)" id="Shape" fill="#FFFFFF" stroke="none" />
          </g>
        </g>
      </g>
    </g>
  </g>
</svg>